<!-- Generated by IcoMoon.io -->
<svg version="1.1" xmlns="http://www.w3.org/2000/svg" width="24" height="24" viewBox="0 0 24 24">
<title>cosmetic</title>
<path d="M1.342 2.649l1.496 17.204v1.484c0.001 1.035 0.84 1.874 1.875 1.875h3.75c1.035-0.001 1.874-0.84 1.875-1.875v-1.484l1.496-17.204 0.368-1.47c0.028-0.112 0.003-0.231-0.068-0.322s-0.18-0.144-0.296-0.144h-10.5c-0.116 0-0.224 0.053-0.296 0.144s-0.096 0.21-0.068 0.322l0.368 1.47zM9.978 15.337h-6.78l-0.195-2.25h7.171l-0.195 2.25zM9.912 16.087l-0.294 3.375h-6.062l-0.294-3.375h6.65zM5.275 20.212h2.625v0.375c0 0.207-0.168 0.375-0.375 0.375h-1.875c-0.207 0-0.375-0.168-0.375-0.375v-0.375zM9.587 21.337c0 0.621-0.504 1.125-1.125 1.125h-3.75c-0.621 0-1.125-0.504-1.125-1.125v-1.125h0.937v0.375c0 0.621 0.504 1.125 1.125 1.125h1.875c0.621 0 1.125-0.504 1.125-1.125v-0.375h0.938v1.125zM10.238 12.337h-7.301l-0.815-9.375h8.932l-0.815 9.375zM11.357 1.462l-0.188 0.75h-9.164l-0.188-0.75h9.539z"></path>
<path d="M15.213 23.212h5.25c0.621 0 1.125-0.504 1.125-1.125v-14.25c-0.001-0.745-0.443-1.418-1.125-1.716v-1.284c0-0.207-0.168-0.375-0.375-0.375h-1.125v-1.5h3.75c0.152 0 0.288-0.091 0.346-0.231s0.026-0.301-0.081-0.409l-0.75-0.75c-0.057-0.057-0.132-0.094-0.212-0.106l-5.25-0.75c-0.018-0.002-0.036-0.004-0.053-0.004h-1.5c-0.207 0-0.375 0.168-0.375 0.375v1.5c0 0.207 0.168 0.375 0.375 0.375h1.5v1.5h-1.125c-0.207 0-0.375 0.168-0.375 0.375v1.284c-0.682 0.298-1.124 0.971-1.125 1.716v14.25c0 0.621 0.504 1.125 1.125 1.125zM20.838 9.712h-6v-0.75h6v0.75zM20.838 17.962h-6v-7.5h6v7.5zM20.463 22.462h-5.25c-0.207 0-0.375-0.168-0.375-0.375v-3.375h6v3.375c0 0.207-0.168 0.375-0.375 0.375zM15.588 1.462h1.098l5.1 0.729 0.021 0.021h-6.22v-0.75zM17.463 2.963h0.75v1.5h-0.75v-1.5zM15.963 5.213h3.75v0.75h-3.75v-0.75zM15.963 6.712h3.75c0.621 0 1.125 0.504 1.125 1.125v0.375h-6v-0.375c0-0.621 0.504-1.125 1.125-1.125z"></path>
<path d="M4.338 14.587h4.5c0.207 0 0.375-0.168 0.375-0.375s-0.168-0.375-0.375-0.375h-4.5c-0.207 0-0.375 0.168-0.375 0.375s0.168 0.375 0.375 0.375z"></path>
<path d="M17.838 20.962h-1.5v-1.125c0-0.207-0.168-0.375-0.375-0.375s-0.375 0.168-0.375 0.375v1.5c0 0.207 0.168 0.375 0.375 0.375h1.875c0.207 0 0.375-0.168 0.375-0.375s-0.168-0.375-0.375-0.375z"></path>
<path d="M19.713 20.962h-0.375c-0.207 0-0.375 0.168-0.375 0.375s0.168 0.375 0.375 0.375h0.375c0.207 0 0.375-0.168 0.375-0.375s-0.168-0.375-0.375-0.375z"></path>
<path d="M8.344 18.693c0.197 0.065 0.409-0.041 0.474-0.237l0.375-1.125c0.066-0.197-0.041-0.409-0.238-0.475s-0.409 0.041-0.475 0.238l-0.375 1.125c-0.031 0.095-0.024 0.198 0.021 0.287s0.123 0.157 0.218 0.188z"></path>
</svg>
