<!-- Generated by IcoMoon.io -->
<svg version="1.1" xmlns="http://www.w3.org/2000/svg" width="24" height="24" viewBox="0 0 24 24">
<title>Group</title>
<path d="M12.65 16.445c0-2.956-1.925-5.36-4.291-5.36v0.602c2.1 0 3.809 2.135 3.809 4.759h0.482z"></path>
<path d="M0.935 16.243h3.93v-5.721h1.97v2.372c0 1.518 0.509 2.982 1.397 4.019 0.934 1.090 1.47 2.598 1.47 4.137v2.949h0.482v-2.949c0-1.705-0.591-3.373-1.622-4.577-0.791-0.923-1.244-2.228-1.244-3.579v-3.087c0-0.821 0.535-1.489 1.192-1.489h2.929c0.121 0 0.22 0.123 0.22 0.275 0 0.758-0.493 1.374-1.1 1.374h-2.178v0.602h2.178c0.43 0 0.819-0.215 1.105-0.564 0.23 0.258 0.53 0.406 0.852 0.406 0.427 0 0.805-0.263 1.037-0.665 0.232 0.402 0.61 0.665 1.037 0.665 0.527 0 0.981-0.401 1.176-0.972h0.45v5.844c0 0.546-0.138 1.066-0.4 1.502-0.474 0.789-0.724 1.703-0.724 2.641v4.573h0.482v-4.573c0-0.807 0.217-1.595 0.628-2.28 0.324-0.541 0.496-1.186 0.496-1.863v-5.844h2.44v0.48h-1.786v0.602h1.786v5.721h3.93v-3.628l0.935-1.436v-6.116l-0.935-1.436v-3.628h-3.93v6.803h-3.27v-1.584c0-0.426-0.133-0.827-0.374-1.128s-0.562-0.468-0.904-0.468c-0.304 0-0.583 0.133-0.802 0.355-0.029-0.366-0.157-0.705-0.368-0.967-0.241-0.302-0.562-0.468-0.904-0.468-0.426 0-0.804 0.262-1.036 0.665-0.040-0.069-0.085-0.135-0.134-0.197-0.242-0.302-0.562-0.468-0.903-0.468-0.661 0-1.206 0.63-1.271 1.434-0.226-0.229-0.506-0.354-0.802-0.354-0.705 0-1.278 0.716-1.278 1.597v1.885h0.482v-1.885c0-0.549 0.357-0.995 0.796-0.995 0.213 0 0.413 0.104 0.563 0.292s0.233 0.437 0.233 0.703h0.482v-1.080c0-0.549 0.357-0.995 0.796-0.995 0.212 0 0.412 0.104 0.562 0.292s0.233 0.438 0.233 0.703v0.781h0.482v-0.781c0-0.549 0.357-0.995 0.796-0.995 0.213 0 0.412 0.104 0.563 0.292 0.15 0.187 0.233 0.437 0.233 0.703v1.080h0.482c0-0.549 0.357-0.995 0.796-0.995 0.213 0 0.413 0.104 0.563 0.292s0.233 0.438 0.233 0.703v3.598c0 0.548-0.357 0.994-0.796 0.994s-0.796-0.446-0.796-0.994v-2.383h-0.482v2.383c0 0.548-0.357 0.994-0.796 0.994-0.215 0-0.415-0.106-0.561-0.289 0.118-0.277 0.186-0.593 0.186-0.928 0-0.358-0.173-0.667-0.42-0.803v-2.026h-0.482v1.952h-1.592v-1.29h-0.482v1.29h-0.655c-0.643 0-1.202 0.456-1.482 1.122h-2.161v-1.435h1.59v-0.602h-1.59v-6.803h-3.93v3.628l-0.935 1.436v6.116l0.935 1.436v3.628zM23.518 5.277v5.689l-0.453 0.696v-7.081l0.453 0.696zM19.618 0.602h1.242v13.037h0.482v-13.037h1.242v15.040h-1.242v-1.142h-0.482v1.142h-1.242v-15.040zM19.136 7.404v1.435h-3.271c0-0.008 0-0.015 0-0.023v-1.412h3.27zM6.86 9.441c-0.017 0.119-0.026 0.242-0.026 0.367v0.113h-1.97v-0.48h1.996zM1.416 0.602h1.242v1.142h0.482v-1.142h1.242v15.040h-1.242v-13.036h-0.482v13.037h-1.242v-15.040zM0.482 10.966v-5.689l0.453-0.696v7.080l-0.453-0.696z"></path>
</svg>
