<svg width="80" height="80" viewBox="0 0 80 80" fill="none" xmlns="http://www.w3.org/2000/svg">
<path d="M42.1682 54.8162C42.1682 44.9639 35.7522 36.9485 27.8658 36.9485V38.954C34.867 38.954 40.5628 46.0695 40.5628 54.8162H42.1682Z" fill="black"/>
<path d="M3.11507 54.1442H16.2135V35.0752H22.779V42.9821C22.779 48.0405 24.4763 52.923 27.4359 56.3782C30.5493 60.0128 32.335 65.0394 32.335 70.1686V79.9998H33.9403V70.1686C33.9403 64.486 31.9691 58.9252 28.5322 54.9129C25.8963 51.8356 24.3845 47.4871 24.3845 42.9823V32.6934C24.3845 29.9564 26.167 27.7294 28.3578 27.7294H38.1227C38.5274 27.7294 38.8568 28.1409 38.8568 28.6465C38.8568 31.1719 37.2123 33.2264 35.1908 33.2264H27.9321V35.232H35.1908C36.6226 35.232 37.9222 34.5142 38.8732 33.3528C39.6385 34.2118 40.6393 34.7075 41.7131 34.7075C43.1353 34.7075 44.3962 33.8319 45.1704 32.4906C45.9442 33.8319 47.2044 34.7075 48.6258 34.7075C50.3839 34.7075 51.8963 33.3708 52.5463 31.469H54.0474V50.9475C54.0474 52.769 53.5864 54.5012 52.7147 55.9556C51.1363 58.5871 50.302 61.6307 50.302 64.7578V80H51.9074V64.7578C51.9074 62.0679 52.6308 59.44 53.9997 57.1579C55.081 55.3535 55.6527 53.2058 55.6527 50.9475V31.469H63.7865V33.0698H57.8328V35.0754H63.7865V54.1444H76.8849V42.0521L80 37.266V16.8784L76.8849 12.0923V0H63.7865V22.6754H52.8862V17.3944C52.8862 15.9738 52.4428 14.6377 51.6386 13.633C50.8356 12.6264 49.7658 12.0722 48.626 12.0722C47.6137 12.0722 46.6833 12.5169 45.9518 13.2569C45.8545 12.0371 45.4273 10.9076 44.7249 10.0334C43.92 9.02761 42.8503 8.47387 41.7131 8.47387C40.2922 8.47387 39.0326 9.3489 38.2586 10.6898C38.1251 10.459 37.9766 10.239 37.812 10.0336C37.0069 9.02781 35.9381 8.47407 34.8023 8.47407C32.6 8.47407 30.7826 10.5725 30.5642 13.2531C29.81 12.4884 28.8762 12.0724 27.8895 12.0724C25.5404 12.0724 23.6294 14.4599 23.6294 17.3946V23.6784H25.2347V17.3946C25.2347 15.5659 26.4256 14.078 27.8895 14.078C28.5994 14.078 29.2655 14.423 29.7661 15.0503C30.2666 15.6754 30.5421 16.5081 30.5421 17.3946H32.1475V13.796C32.1475 11.9673 33.3383 10.4796 34.8023 10.4796C35.5093 10.4796 36.1749 10.825 36.6767 11.4519C37.1786 12.0789 37.455 12.9114 37.455 13.796V16.3988H39.0604V13.796C39.0604 11.9673 40.2504 10.4796 41.7129 10.4796C42.4214 10.4796 43.0876 10.8248 43.5904 11.4531C44.0916 12.0771 44.3677 12.9094 44.3677 13.7962V17.3948H45.9731C45.9731 15.5661 47.163 14.0782 48.6257 14.0782C49.3356 14.0782 50.0016 14.4232 50.5022 15.0505C51.004 15.6774 51.2805 16.5099 51.2805 17.3948V29.3882C51.2805 31.2155 50.0895 32.7022 48.6257 32.7022C47.163 32.7022 45.9731 31.2155 45.9731 29.3882V21.4442H44.3677V29.3882C44.3677 31.2155 43.1767 32.7022 41.7129 32.7022C40.9957 32.7022 40.3307 32.3474 39.843 31.7391C40.2376 30.8164 40.462 29.7638 40.462 28.6468C40.462 27.452 39.8844 26.4236 39.0604 25.9709V19.2162H37.455V25.7239H32.1475V21.4229H30.5421V25.7239H28.3577C26.2142 25.7239 24.3505 27.2427 23.4166 29.4634H16.2135V24.6812H21.5133V22.6756H16.2135V0H3.11507V12.0923L0 16.8784V37.2658L3.11507 42.0519V54.1442ZM78.3946 17.5909V36.5534L76.8849 38.8731V15.2711L78.3946 17.5909ZM65.3919 2.00556H69.5331V45.4607H71.1385V2.00556H75.2796V9.62566V44.5185V52.1386H71.1385V48.3323H69.5331V52.1386H65.3919V31.4688V22.6754V2.00556ZM63.7865 24.681V29.4632H52.8846C52.8849 29.4379 52.8862 29.4131 52.8862 29.3878V24.681H63.7865ZM22.867 31.4688C22.8101 31.8665 22.779 32.2752 22.779 32.6932V33.0696H16.2135V31.4688H22.867ZM4.72044 2.00556H8.86151V5.8119H10.4669V2.00556H14.6081V22.6754V31.4688V52.1386H10.4669V8.68365H8.86151V52.1388H4.72044V44.5187V9.62566V2.00556ZM1.60537 36.5533V17.5907L3.11507 15.2713V38.8729L1.60537 36.5533Z" fill="black"/>
</svg>
