<!-- Generated by IcoMoon.io -->
<svg version="1.1" xmlns="http://www.w3.org/2000/svg" width="24" height="24" viewBox="0 0 24 24">
<title>trim</title>
<path d="M12 13.497c0.455 0 0.865-0.274 1.039-0.694s0.078-0.904-0.244-1.226c-0.445-0.425-1.146-0.425-1.591 0-0.321 0.322-0.418 0.805-0.244 1.226s0.584 0.694 1.039 0.695zM11.735 12.107c0.146-0.146 0.384-0.146 0.53 0s0.146 0.384 0 0.53c-0.148 0.142-0.382 0.142-0.53 0-0.146-0.146-0.146-0.384 0-0.53z"></path>
<path d="M16.5 8.247c0.099 0 0.195-0.040 0.265-0.11l3.375-3.375c0.142-0.147 0.14-0.381-0.005-0.526s-0.379-0.147-0.526-0.005l-3.375 3.375c-0.107 0.107-0.139 0.269-0.081 0.409s0.195 0.231 0.346 0.231z"></path>
<path d="M14.625 10.122c0.099 0 0.195-0.040 0.265-0.11l0.75-0.75c0.142-0.147 0.14-0.381-0.005-0.526s-0.379-0.147-0.526-0.005l-0.75 0.75c-0.107 0.107-0.139 0.269-0.081 0.409s0.195 0.231 0.346 0.231z"></path>
<path d="M4.875 18.747c-0.828 0-1.5 0.672-1.5 1.5s0.672 1.5 1.5 1.5 1.5-0.671 1.5-1.5c0-0.828-0.672-1.5-1.5-1.5zM4.875 20.997c-0.414 0-0.75-0.336-0.75-0.75s0.336-0.75 0.75-0.75 0.75 0.336 0.75 0.75c0 0.414-0.336 0.75-0.75 0.75z"></path>
<path d="M19.139 21.747c0.828 0 1.5-0.671 1.5-1.5s-0.672-1.5-1.5-1.5c-0.829 0-1.5 0.672-1.5 1.5s0.671 1.5 1.5 1.5zM19.139 19.497c0.414 0 0.75 0.336 0.75 0.75s-0.336 0.75-0.75 0.75-0.75-0.336-0.75-0.75c0-0.414 0.336-0.75 0.75-0.75z"></path>
<path d="M22.875 13.872c-0.828 0-1.5-0.671-1.5-1.5 0-0.207-0.168-0.375-0.375-0.375s-0.375 0.168-0.375 0.375c0 0.829-0.672 1.5-1.5 1.5-0.207 0-0.375 0.168-0.375 0.375s0.168 0.375 0.375 0.375c0.828 0 1.5 0.672 1.5 1.5 0 0.207 0.168 0.375 0.375 0.375s0.375-0.168 0.375-0.375c0-0.828 0.672-1.5 1.5-1.5 0.207 0 0.375-0.168 0.375-0.375s-0.168-0.375-0.375-0.375zM21 14.881c-0.167-0.252-0.382-0.467-0.634-0.634 0.251-0.167 0.467-0.382 0.634-0.634 0.167 0.251 0.382 0.467 0.634 0.634-0.251 0.167-0.467 0.382-0.634 0.634z"></path>
<path d="M1.125 10.122c0.828 0 1.5 0.672 1.5 1.5 0 0.207 0.168 0.375 0.375 0.375s0.375-0.168 0.375-0.375c0-0.828 0.672-1.5 1.5-1.5 0.207 0 0.375-0.168 0.375-0.375s-0.168-0.375-0.375-0.375c-0.828 0-1.5-0.671-1.5-1.5 0-0.207-0.168-0.375-0.375-0.375s-0.375 0.168-0.375 0.375c0 0.829-0.672 1.5-1.5 1.5-0.207 0-0.375 0.168-0.375 0.375s0.168 0.375 0.375 0.375zM3 9.113c0.167 0.251 0.382 0.467 0.634 0.634-0.251 0.167-0.467 0.382-0.634 0.634-0.167-0.252-0.382-0.467-0.634-0.634 0.251-0.167 0.467-0.382 0.634-0.634z"></path>
<path d="M9.825 13.642l-3.825 3.824c-0.357-0.146-0.739-0.22-1.125-0.22-1.657 0-3 1.343-3 3s1.343 3 3 3 3-1.343 3-3c-0-0.179-0.017-0.358-0.050-0.535l4.182-4.088 4.182 4.088c-0.033 0.176-0.050 0.355-0.050 0.535 0 1.657 1.343 3 3 3s3-1.343 3-3c0-1.657-1.343-3-3-3-0.386-0.001-0.768 0.074-1.125 0.22l-3.82-3.82 7.099-8.166c1.652-2.065 0.036-4.543 0.019-4.567-0.061-0.091-0.159-0.151-0.268-0.164s-0.219 0.023-0.3 0.097l-8.733 8.112-8.734-8.112c-0.081-0.075-0.19-0.11-0.3-0.097s-0.207 0.073-0.268 0.164c-0.017 0.025-1.633 2.502 0.029 4.579l7.088 8.149zM7.152 19.322c-0.096 0.094-0.134 0.232-0.101 0.362 0.241 0.932-0.137 1.914-0.941 2.443s-1.855 0.489-2.616-0.101c-0.761-0.59-1.062-1.598-0.75-2.508s1.169-1.521 2.131-1.52c0.36-0 0.714 0.086 1.033 0.253 0.145 0.075 0.322 0.048 0.438-0.068l3.971-3.97c0.222 0.209 0.479 0.379 0.758 0.501l0.396 0.387-4.319 4.223zM18.107 18.249c0.318-0.167 0.673-0.253 1.032-0.253 0.97-0.006 1.836 0.607 2.153 1.524s0.015 1.934-0.752 2.528c-0.766 0.595-1.826 0.635-2.636 0.1s-1.188-1.526-0.941-2.464c0.034-0.13-0.005-0.268-0.101-0.362l-4.548-4.446c0.517-0.079 0.996-0.315 1.374-0.675l3.979 3.979c0.115 0.116 0.292 0.144 0.438 0.069zM20.902 1.725c0.316 0.672 0.772 2.079-0.184 3.276l-7.482 8.606c-0.679 0.685-1.785 0.689-2.47 0.010s-0.689-1.785-0.010-2.47l10.146-9.422zM3.117 1.722l8.342 7.748-1.224 1.137c-0.413 0.401-0.678 0.929-0.75 1.5l-6.171-7.094c-0.974-1.217-0.516-2.62-0.196-3.291z"></path>
</svg>
